<svg width="150" height="150" viewBox="0 0 150 150" xmlns="http://www.w3.org/2000/svg">
  <!-- Background -->
  <rect width="150" height="150" rx="20" fill="#E8FFF0"></rect>

  <!-- Left Blade -->
  <path d="M75 75 
           L30 30 
           Q25 25 32 22 
           Q40 20 45 28 
           L78 68 Z" fill="#D6D6D6" stroke="#666" stroke-width="3"></path>

  <!-- Right Blade -->
  <path d="M75 75 
           L120 30 
           Q125 25 118 22 
           Q110 20 105 28 
           L72 68 Z" fill="#D6D6D6" stroke="#666" stroke-width="3"></path>

  <!-- Metal Arms -->
  <path d="M72 80 L58 98" stroke="#777" stroke-width="6" stroke-linecap="round"></path>
  <path d="M78 80 L92 98" stroke="#777" stroke-width="6" stroke-linecap="round"></path>

  <!-- Pivot -->
  <circle cx="75" cy="75" r="6" fill="#999" stroke="#555" stroke-width="3"></circle>

  <!-- Handles (slightly smaller) -->
  <circle cx="52" cy="112" r="15" fill="#FF6F6F" stroke="#444" stroke-width="4"></circle>
  <circle cx="98" cy="112" r="15" fill="#FF6F6F" stroke="#444" stroke-width="4"></circle>

  <!-- Face (moved down) -->
  <circle cx="70" cy="92" r="3" fill="#333"></circle>
  <circle cx="80" cy="92" r="3" fill="#333"></circle>
  <path d="M70 102 Q75 107 80 102" stroke="#333" stroke-width="2" fill="none"></path>
</svg>
